<?xml version="1.0"?>
<svg xmlns="http://www.w3.org/2000/svg" xmlns:xlink="http://www.w3.org/1999/xlink" version="1.1" id="Capa_1" x="0px" y="0px" viewBox="0 0 512.001 512.001" style="enable-background:new 0 0 512.001 512.001;" xml:space="preserve" width="512px" height="512px"><g><g>
	<g>
		<path d="M511.986,114.974c-0.005-0.296-0.022-0.59-0.045-0.886c-0.016-0.213-0.031-0.424-0.055-0.635    c-0.033-0.28-0.079-0.559-0.128-0.838c-0.039-0.222-0.075-0.445-0.123-0.664c-0.056-0.254-0.126-0.507-0.195-0.759    c-0.064-0.235-0.127-0.47-0.203-0.7c-0.075-0.229-0.163-0.454-0.248-0.68c-0.094-0.246-0.187-0.493-0.293-0.734    c-0.09-0.204-0.191-0.403-0.29-0.604c-0.126-0.255-0.254-0.509-0.394-0.755c-0.104-0.182-0.216-0.36-0.328-0.539    c-0.158-0.253-0.32-0.504-0.492-0.748c-0.051-0.071-0.092-0.148-0.143-0.219c-0.077-0.105-0.165-0.197-0.244-0.3    c-0.172-0.223-0.348-0.441-0.531-0.653c-0.16-0.185-0.325-0.365-0.492-0.54s-0.337-0.346-0.512-0.513    c-0.195-0.187-0.394-0.368-0.597-0.544c-0.166-0.143-0.335-0.28-0.506-0.415c-0.219-0.173-0.441-0.34-0.668-0.499    c-0.179-0.126-0.362-0.246-0.547-0.364c-0.225-0.145-0.452-0.284-0.684-0.415c-0.208-0.118-0.418-0.228-0.631-0.337    c-0.218-0.11-0.437-0.218-0.659-0.318c-0.238-0.107-0.481-0.206-0.726-0.3c-0.209-0.08-0.418-0.159-0.63-0.231    c-0.258-0.088-0.52-0.166-0.785-0.239c-0.215-0.06-0.43-0.116-0.647-0.166c-0.258-0.06-0.516-0.112-0.779-0.159    c-0.243-0.043-0.487-0.08-0.731-0.112c-0.236-0.031-0.473-0.056-0.713-0.075c-0.285-0.023-0.57-0.036-0.855-0.043    c-0.127-0.003-0.25-0.019-0.379-0.019H15.267c-0.134,0-0.264,0.016-0.397,0.02c-0.276,0.007-0.55,0.019-0.823,0.042    c-0.249,0.019-0.496,0.047-0.741,0.078c-0.235,0.031-0.469,0.066-0.703,0.107c-0.271,0.048-0.537,0.102-0.803,0.164    c-0.21,0.049-0.417,0.103-0.625,0.161c-0.271,0.075-0.538,0.156-0.803,0.245c-0.207,0.07-0.41,0.147-0.615,0.225    c-0.249,0.097-0.497,0.196-0.74,0.306c-0.219,0.098-0.434,0.204-0.647,0.313c-0.216,0.11-0.43,0.221-0.639,0.341    c-0.23,0.13-0.456,0.27-0.68,0.413c-0.185,0.119-0.369,0.239-0.55,0.365c-0.227,0.159-0.448,0.327-0.667,0.499    c-0.171,0.135-0.34,0.272-0.506,0.414c-0.205,0.175-0.403,0.357-0.599,0.544c-0.174,0.167-0.344,0.337-0.51,0.512    c-0.168,0.176-0.332,0.356-0.493,0.541c-0.184,0.213-0.359,0.431-0.531,0.653c-0.079,0.103-0.167,0.195-0.244,0.3    c-0.052,0.071-0.093,0.147-0.143,0.219c-0.172,0.243-0.334,0.494-0.492,0.748c-0.112,0.179-0.224,0.357-0.328,0.539    c-0.14,0.246-0.268,0.5-0.394,0.755c-0.1,0.201-0.201,0.4-0.29,0.604c-0.106,0.24-0.199,0.487-0.293,0.734    c-0.087,0.226-0.174,0.451-0.248,0.68c-0.075,0.23-0.138,0.466-0.203,0.7c-0.069,0.252-0.139,0.505-0.195,0.759    c-0.048,0.219-0.084,0.441-0.123,0.664c-0.049,0.279-0.095,0.557-0.128,0.838c-0.024,0.21-0.039,0.422-0.055,0.635    c-0.022,0.295-0.04,0.59-0.045,0.886C0.012,115.062,0,115.149,0,115.238v281.525c0,0.159,0.019,0.313,0.023,0.471    c0.008,0.281,0.018,0.562,0.043,0.843c0.02,0.237,0.051,0.47,0.082,0.704c0.035,0.258,0.07,0.514,0.118,0.77    c0.045,0.245,0.1,0.485,0.157,0.727c0.057,0.242,0.117,0.482,0.185,0.722c0.069,0.24,0.147,0.476,0.228,0.711    c0.08,0.235,0.165,0.469,0.256,0.702c0.091,0.228,0.189,0.452,0.291,0.674c0.105,0.23,0.213,0.459,0.33,0.685    c0.113,0.218,0.233,0.43,0.356,0.641c0.126,0.217,0.254,0.433,0.392,0.645c0.139,0.215,0.288,0.423,0.438,0.63    c0.14,0.194,0.281,0.388,0.432,0.577c0.174,0.218,0.357,0.425,0.542,0.634c0.107,0.119,0.199,0.246,0.31,0.363    c0.045,0.048,0.096,0.088,0.141,0.134c0.215,0.221,0.442,0.428,0.67,0.636c0.157,0.143,0.309,0.292,0.47,0.427    c0.222,0.186,0.456,0.356,0.688,0.529c0.178,0.133,0.352,0.276,0.535,0.4c0.237,0.162,0.489,0.304,0.735,0.453    c0.185,0.111,0.365,0.234,0.555,0.337c0.439,0.238,0.89,0.457,1.353,0.652c0.055,0.023,0.113,0.039,0.169,0.062    c0.414,0.169,0.835,0.327,1.266,0.459c0.092,0.029,0.184,0.045,0.276,0.071c0.394,0.113,0.791,0.221,1.198,0.303    c0.148,0.029,0.297,0.043,0.445,0.068c0.35,0.06,0.698,0.122,1.055,0.158c0.47,0.047,0.942,0.068,1.415,0.071    c0.038,0,0.075,0.006,0.113,0.006h481.467c8.431,0,15.267-6.835,15.267-15.267V115.238    C512,115.149,511.988,115.062,511.986,114.974z M450.066,130.505L256,272.696L61.933,130.505H450.066z M30.533,145.35    l128.516,94.163L30.533,361.269V145.35z M53.579,381.495l130.504-123.64l62.893,46.082c2.686,1.968,5.854,2.952,9.024,2.952    s6.338-0.984,9.024-2.952l62.781-46l130.418,123.559H53.579z M481.467,361.456L352.839,239.594l128.627-94.245V361.456z" data-original="#000000" class="active-path" data-old_color="#000000" fill="#667580"/>
	</g>
</g></g> </svg>
