<svg id="Layer_1" enable-background="new 0 0 512 512" height="512" viewBox="0 0 512 512" width="512" xmlns="http://www.w3.org/2000/svg"><g><g><path d="m97.5 504.5c-11.046 0-20-8.954-20-20v-12c0-44.183 35.817-80 80-80h50c2.761 0 5-2.239 5-5v-55h87v55c0 2.761 2.239 5 5 5h50c44.183 0 80 35.817 80 80v12c0 11.046-8.954 20-20 20z" fill="#5d5360"/><path d="m434.5 472.5v12c0 11.05-8.95 20-20 20h-30c11.05 0 20-8.95 20-20v-12c0-44.18-35.82-80-80-80h30c44.18 0 80 35.82 80 80z" fill="#514a54"/><path d="m226.5 49.5h-14.5c-13.807 0-25-11.193-25-25v-7c0-5.523 4.477-10 10-10h34c13.807 0 25 11.193 25 25l10 8.5z" fill="#5d5360"/><path d="m285.5 49.5h14.5c13.807 0 25-11.193 25-25v-7c0-5.523-4.477-10-10-10h-34c-13.807 0-25 11.193-25 25v8.5z" fill="#5d5360"/><path d="m325 17.5v7c0 13.81-11.19 25-25 25h-30c13.81 0 25-11.19 25-25v-7c0-5.52-4.48-10-10-10h30c5.52 0 10 4.48 10 10z" fill="#514a54"/><path d="m148.5 259.5h-26.5c-16.845 0-30.5-13.655-30.5-30.5 0-16.845 13.655-30.5 30.5-30.5h26.5z" fill="#5d5360"/><path d="m363.5 198.5h26.5c16.845 0 30.5 13.655 30.5 30.5 0 16.845-13.655 30.5-30.5 30.5h-26.5z" fill="#5d5360"/><path d="m138.5 240c0 64.893 52.606 117.5 117.5 117.5 64.893 0 117.5-52.606 117.5-117.5v-84c0-64.893-52.607-117.5-117.5-117.5-64.893 0-117.5 52.606-117.5 117.5z" fill="#6f6571"/><path d="m373.5 156v84c0 32.44-13.15 61.82-34.42 83.08-21.26 21.27-50.64 34.42-83.08 34.42-5.08 0-10.09-.32-15-.95 26.45-3.37 50.15-15.53 68.08-33.47 21.27-21.26 34.42-50.64 34.42-83.08v-84c0-59.81-44.69-109.18-102.5-116.55 4.91-.63 9.92-.95 15-.95 64.89 0 117.5 52.61 117.5 117.5z" fill="#5d5360"/><path d="m313 259.5h-114c-16.845 0-30.5-13.655-30.5-30.5 0-16.845 13.655-30.5 30.5-30.5h114c16.845 0 30.5 13.655 30.5 30.5 0 16.845-13.655 30.5-30.5 30.5z" fill="#f6d190"/><path d="m132.5 504.5v-115.392c0-4.894 3.541-9.076 8.37-9.874 8.802-1.455 17.889-1.745 27.227-1.133 5.279.346 9.403 4.697 9.403 9.987v61.412c0 5.523 4.477 10 10 10h137c5.523 0 10-4.477 10-10v-61.412c0-5.291 4.124-9.642 9.403-9.987 9.338-.611 18.425-.322 27.227 1.133 4.829.798 8.37 4.98 8.37 9.874v115.392z" fill="#c3aff0"/><g fill="#a69ded"><path d="m379.5 389.11v115.39h-30v-115.39c0-4.9-3.54-9.08-8.37-9.88-.32-.05-.64-.1-.96-.15 1.14-.55 2.4-.89 3.73-.98 9.34-.61 18.43-.32 27.23 1.13 4.83.8 8.37 4.98 8.37 9.88z"/><path d="m304.5 504.5h-30v-55c0-2.761 2.239-5 5-5h20c2.761 0 5 2.239 5 5z"/><path d="m237.5 504.5h-30v-55c0-2.761 2.239-5 5-5h20c2.761 0 5 2.239 5 5z"/></g></g><g><path d="m287.754 281.621c-18.782 15.805-44.888 15.814-63.482.022-3.157-2.681-7.89-2.295-10.571.862s-2.295 7.89.862 10.572c12.147 10.317 26.74 15.474 41.362 15.474 14.607 0 29.245-5.151 41.487-15.452 3.169-2.667 3.576-7.398.91-10.567-2.669-3.172-7.397-3.58-10.568-.911z"/><path d="m387 391.246v-2.138c0-8.606-6.16-15.871-14.646-17.273-9.074-1.501-18.541-1.9-28.94-1.218-8.149.534-14.725 6.615-16.126 14.383h-20.288v-30.886c35.619-15.982 62.444-48.164 71.054-87.114h11.946c20.953 0 38-17.047 38-38s-17.047-38-38-38h-9v-35c0-45.139-24.051-84.763-60.01-106.739 7.103-6.062 11.51-15.065 11.51-24.761v-7c0-9.649-7.851-17.5-17.5-17.5h-34c-10.042 0-19.034 4.58-25 11.759-5.966-7.179-14.958-11.759-25-11.759h-34c-9.649 0-17.5 7.851-17.5 17.5v7c0 9.752 4.353 18.729 11.481 24.779-35.942 21.979-59.981 61.595-59.981 106.721v7.5c0 4.142 3.357 7.5 7.5 7.5s7.5-3.358 7.5-7.5v-7.5c0-60.654 49.346-110 110-110s110 49.346 110 110v84c0 60.654-49.346 110-110 110s-110-49.346-110-110v-41.5c0-4.142-3.357-7.5-7.5-7.5h-16.5c-20.953 0-38 17.047-38 38s17.047 38 38 38h11.946c8.61 38.949 35.436 71.132 71.054 87.114v30.886h-20.287c-1.402-7.768-7.977-13.85-16.126-14.383-10.399-.681-19.864-.283-28.94 1.218-8.487 1.402-14.647 8.667-14.647 17.273v2.135c-33.023 13.215-55 45.477-55 81.257v12c0 15.164 12.337 27.5 27.5 27.5h247c4.143 0 7.5-3.358 7.5-7.5s-3.357-7.5-7.5-7.5h-32.5v-30h12.5c9.649 0 17.5-7.851 17.5-17.5v-61.413c0-1.315 1.052-2.415 2.394-2.503 9.236-.604 17.584-.261 25.513 1.049 1.213.201 2.094 1.241 2.094 2.475v114.892c0 .084.01.166.013.25-.003.084-.013.166-.013.25 0 4.142 3.357 7.5 7.5 7.5h35c15.163 0 27.5-12.336 27.5-27.5v-12c-.001-35.76-21.985-68.039-55.001-81.254zm-106-376.246h34c1.379 0 2.5 1.122 2.5 2.5v7c0 7.573-4.982 14.359-12.158 16.66-12.949-5.585-27.022-9.039-41.778-9.924.653-9.06 8.213-16.236 17.436-16.236zm-74.64 26.074c-7.093-2.413-11.86-9.074-11.86-16.574v-7c0-1.378 1.121-2.5 2.5-2.5h34c9.223 0 16.783 7.176 17.436 16.236-14.77.886-28.857 4.346-41.816 9.941-.088-.034-.171-.073-.26-.103zm183.64 164.926c12.683 0 23 10.318 23 23s-10.317 23-23 23h-9.579c.378-3.951.579-7.952.579-12v-3.5h9.5c4.143 0 7.5-3.358 7.5-7.5s-3.357-7.5-7.5-7.5h-9.5v-15.5zm-268 46c-12.683 0-23-10.318-23-23s10.317-23 23-23h9v15.5h-9.5c-4.143 0-7.5 3.358-7.5 7.5s3.357 7.5 7.5 7.5h9.5v3.5c0 4.048.201 8.049.579 12zm20.094 134.633c7.929-1.311 16.275-1.653 25.513-1.049 1.342.088 2.394 1.188 2.394 2.503v61.413c0 9.649 7.851 17.5 17.5 17.5h12.499v30h-60v-107.892c0-1.233.881-2.274 2.094-2.475zm102.906 80.367h22v30h-22zm-15 30h-15v-45h15zm-145-12.5v-12c0-27.588 15.765-52.651 40-64.824v89.324h-27.5c-6.893 0-12.5-5.607-12.5-12.5zm197 12.5v-45h15v45zm42.5-45h-12.5v-2.5c0-6.893-5.607-12.5-12.5-12.5h-20c-6.893 0-12.5 5.607-12.5 12.5v2.5h-22v-2.5c0-6.893-5.607-12.5-12.5-12.5h-20c-6.893 0-12.5 5.607-12.5 12.5v2.5h-12.5c-1.379 0-2.5-1.122-2.5-2.5v-49.5h22.5c6.893 0 12.5-5.607 12.5-12.5v-27.792c11.406 3.436 23.489 5.292 36 5.292s24.594-1.856 36-5.292v27.792c0 6.893 5.607 12.5 12.5 12.5h22.5v49.5c0 1.378-1.121 2.5-2.5 2.5zm102.5 32.5c0 6.893-5.607 12.5-12.5 12.5h-27.5v-89.326c24.231 12.174 40 37.254 40 64.826z"/><path d="m313 223.5c0-4.142-3.357-7.5-7.5-7.5s-7.5 3.358-7.5 7.5v11c0 4.142 3.357 7.5 7.5 7.5s7.5-3.358 7.5-7.5z"/><path d="m206.5 216c-4.143 0-7.5 3.358-7.5 7.5v11c0 4.142 3.357 7.5 7.5 7.5s7.5-3.358 7.5-7.5v-11c0-4.142-3.357-7.5-7.5-7.5z"/><path d="m351 229c0-20.953-17.047-38-38-38h-114c-20.953 0-38 17.047-38 38s17.047 38 38 38h114c20.953 0 38-17.047 38-38zm-175 0c0-12.682 10.317-23 23-23h114c12.683 0 23 10.318 23 23s-10.317 23-23 23h-114c-12.683 0-23-10.318-23-23z"/></g></g></svg>