<?xml version="1.0"?>
<svg xmlns="http://www.w3.org/2000/svg" xmlns:xlink="http://www.w3.org/1999/xlink" version="1.1" id="Capa_1" x="0px" y="0px" viewBox="0 0 512 512" style="enable-background:new 0 0 512 512;" xml:space="preserve" width="512px" height="512px"><g><g>
	<g>
		<path d="M0,51v410h512V51H0z M482,431H30v-40h452V431z M482,361H114.213l84.287-84.287l55,55l146.5-146.5l82,82V361z M482,224.787    l-82-82l-146.5,146.5l-55-55L71.787,361H30V81h452V224.787z" data-original="#000000" class="active-path" data-old_color="#000000" fill="#667580"/>
	</g>
</g><g>
	<g>
		<path d="M120,111c-33.084,0-60,26.916-60,60s26.916,60,60,60s60-26.916,60-60S153.084,111,120,111z M120,201    c-16.542,0-30-13.458-30-30s13.458-30,30-30s30,13.458,30,30S136.542,201,120,201z" data-original="#000000" class="active-path" data-old_color="#000000" fill="#667580"/>
	</g>
</g></g> </svg>
